<svg xmlns="http://www.w3.org/2000/svg" width="1280" height="720" viewBox="0 0 1280 720" role="img" aria-labelledby="title desc">
  <title id="title">IBKR Activity Statement CSV export settings</title>
  <desc id="desc">Instructional screenshot-style diagram showing the Activity Statement dialog and the Download CSV button.</desc>
  <rect width="1280" height="720" fill="#f3f4f6"/>
  <rect y="0" width="1280" height="24" fill="#101827"/>
  <text x="20" y="17" font-family="Arial, sans-serif" font-size="12" fill="#d1d5db">S&amp;P 500 7474.07 ▲ 0.38%</text>
  <text x="160" y="17" font-family="Arial, sans-serif" font-size="12" fill="#d1d5db">NASDAQ Comp 26346.30 ▲ 0.20%</text>
  <rect y="24" width="1280" height="56" fill="#ffffff"/>
  <text x="40" y="58" font-family="Arial, sans-serif" font-size="26" font-weight="700" fill="#1f2937">InteractiveBrokers</text>
  <text x="240" y="56" font-family="Arial, sans-serif" font-size="16" fill="#1f2937">投资组合</text>
  <text x="320" y="56" font-family="Arial, sans-serif" font-size="16" fill="#1f2937">交易</text>
  <text x="390" y="56" font-family="Arial, sans-serif" font-size="16" fill="#1f2937">研究</text>
  <rect x="0" y="80" width="1280" height="640" fill="#000" opacity=".22"/>
  <rect x="356" y="18" width="568" height="480" rx="3" fill="#ffffff"/>
  <rect x="356" y="18" width="568" height="4" fill="#0b5bd3"/>
  <text x="374" y="56" font-family="Arial, sans-serif" font-size="22" fill="#111827">活动报表</text>
  <circle cx="906" cy="40" r="14" fill="#e5e7eb"/>
  <path d="M900 34 L912 46 M912 34 L900 46" stroke="#6b7280" stroke-width="3" stroke-linecap="round"/>
  <line x1="356" y1="82" x2="924" y2="82" stroke="#e5e7eb"/>
  <text x="374" y="112" font-family="Arial, sans-serif" font-size="14" fill="#111827">时间段</text>
  <rect x="600" y="94" width="300" height="34" rx="3" fill="#fff" stroke="#d1d5db"/>
  <text x="614" y="116" font-family="Arial, sans-serif" font-size="14" fill="#111827">自定义日期范围</text>
  <path d="M888 106 l5 5 l5 -5" fill="none" stroke="#111827" stroke-width="1.5"/>
  <text x="374" y="156" font-family="Arial, sans-serif" font-size="14" fill="#111827">起始日期</text>
  <rect x="600" y="138" width="300" height="34" rx="3" fill="#fff" stroke="#d1d5db"/>
  <text x="614" y="160" font-family="Arial, sans-serif" font-size="14" fill="#111827">选择开始日期</text>
  <text x="374" y="200" font-family="Arial, sans-serif" font-size="14" fill="#111827">结束日期</text>
  <rect x="600" y="182" width="300" height="34" rx="3" fill="#fff" stroke="#d1d5db"/>
  <text x="614" y="204" font-family="Arial, sans-serif" font-size="14" fill="#111827">选择结束日期</text>
  <line x1="374" y1="238" x2="900" y2="238" stroke="#f0f0f0"/>
  <text x="374" y="270" font-family="Arial, sans-serif" font-size="14" fill="#111827">加密货币活动</text>
  <rect x="600" y="252" width="300" height="34" rx="3" fill="#fff" stroke="#d1d5db"/>
  <text x="614" y="274" font-family="Arial, sans-serif" font-size="14" fill="#111827">包含加密货币活动</text>
  <text x="374" y="324" font-family="Arial, sans-serif" font-size="14" fill="#111827">多账户格式</text>
  <circle cx="607" cy="319" r="8" fill="#0b5bd3"/>
  <path d="M602 319 l3 3 l7 -8" fill="none" stroke="#fff" stroke-width="2" stroke-linecap="round" stroke-linejoin="round"/>
  <text x="624" y="323" font-family="Arial, sans-serif" font-size="14" font-weight="700" fill="#111827">综合总结</text>
  <text x="624" y="346" font-family="Arial, sans-serif" font-size="13" fill="#374151">所有交易、余额和持仓像一个投资组合一样合并在一起</text>
  <circle cx="607" cy="370" r="8" fill="#fff" stroke="#d1d5db"/>
  <text x="624" y="374" font-family="Arial, sans-serif" font-size="14" font-weight="700" fill="#111827">逐个账户打包</text>
  <text x="624" y="397" font-family="Arial, sans-serif" font-size="13" fill="#374151">单独账户报表的集合，并提供</text>
  <text x="374" y="440" font-family="Arial, sans-serif" font-size="14" fill="#0b5bd3">高级选项</text>
  <rect x="365" y="454" width="550" height="44" fill="#ffffff"/>
  <rect x="365" y="460" width="124" height="30" rx="3" fill="#fff" stroke="#d1d5db"/>
  <text x="420" y="480" font-family="Arial, sans-serif" font-size="14" fill="#6b7280">下载PDF</text>
  <rect x="503" y="446" width="134" height="58" rx="2" fill="none" stroke="#ef4444" stroke-width="3"/>
  <rect x="508" y="460" width="124" height="30" rx="3" fill="#fff" stroke="#d1d5db"/>
  <text x="562" y="480" font-family="Arial, sans-serif" font-size="14" fill="#6b7280">下载CSV</text>
  <rect x="644" y="460" width="124" height="30" rx="3" fill="#fff" stroke="#d1d5db"/>
  <text x="700" y="480" font-family="Arial, sans-serif" font-size="14" fill="#6b7280">下载HTML</text>
  <rect x="784" y="460" width="124" height="30" rx="3" fill="#0b5bd3"/>
  <text x="836" y="480" font-family="Arial, sans-serif" font-size="14" fill="#ffffff">查看报表</text>
  <rect x="500" y="528" width="280" height="78" rx="8" fill="#111827"/>
  <text x="520" y="558" font-family="Arial, sans-serif" font-size="17" font-weight="700" fill="#ffffff">正确下载方式</text>
  <text x="520" y="584" font-family="Arial, sans-serif" font-size="14" fill="#d1d5db">报表 → 活动报表 → 自定义日期范围 → 下载 CSV</text>
</svg>
